<svg xmlns="http://www.w3.org/2000/svg" class="sf-product-visual " viewBox="0 0 320 240" fill="none" role="img" focusable="false"><title>Original alarm hardware illustration; not manufacturer photography</title><defs><linearGradient id="_R_0_-metal" x1="70" y1="40" x2="230" y2="200" gradientUnits="userSpaceOnUse"><stop stop-color="#fff"></stop><stop offset=".33" stop-color="#e3e7e9"></stop><stop offset=".7" stop-color="#a9b0b6"></stop><stop offset="1" stop-color="#e2e7e9"></stop></linearGradient><linearGradient id="_R_0_-dark" x1="90" y1="50" x2="220" y2="200" gradientUnits="userSpaceOnUse"><stop stop-color="#56616c"></stop><stop offset=".22" stop-color="#252d35"></stop><stop offset=".65" stop-color="#0e1319"></stop><stop offset="1" stop-color="#343e48"></stop></linearGradient><linearGradient id="_R_0_-edge" x1="60" y1="60" x2="245" y2="155" gradientUnits="userSpaceOnUse"><stop stop-color="#829099"></stop><stop offset=".25" stop-color="#3c464f"></stop><stop offset="1" stop-color="#10161c"></stop></linearGradient><radialGradient id="_R_0_-glass" cx=".35" cy=".3" r=".8"><stop stop-color="#668b9b"></stop><stop offset=".2" stop-color="#1c4050"></stop><stop offset=".45" stop-color="#07151d"></stop><stop offset=".74" stop-color="#1c3945"></stop><stop offset="1" stop-color="#020709"></stop></radialGradient><radialGradient id="_R_0_-shadow"><stop stop-color="#000" stop-opacity=".4"></stop><stop offset="1" stop-color="#000" stop-opacity="0"></stop></radialGradient></defs><ellipse cx="160" cy="211" rx="118" ry="17" fill="url(#_R_0_-shadow)"></ellipse><g><rect x="83" y="48" width="150" height="137" rx="29" fill="url(#_R_0_-metal)" stroke="#edf2f5" stroke-width="1.5"></rect><rect x="91" y="53" width="133" height="125" rx="24" stroke="#fff" opacity=".5"></rect><path d="m145 112 14-10 14 10v20h-10v-12h-8v12h-10Z" fill="#56626c"></path><path d="M151 160h15" stroke="#4ab9c8" stroke-width="3" stroke-linecap="round"></path><rect x="50" y="114" width="42" height="84" rx="12" fill="url(#_R_0_-metal)" stroke="#fff"></rect><rect x="58" y="122" width="26" height="36" rx="8" fill="#e4e9ec" stroke="#b8c3ca"></rect><circle cx="71" cy="181" r="2" fill="#71b7c8"></circle><rect x="231" y="117" width="27" height="78" rx="9" fill="url(#_R_0_-metal)" stroke="#edf1f4"></rect><rect x="265" y="118" width="12" height="50" rx="5" fill="url(#_R_0_-metal)"></rect></g></svg>